<svg xmlns="http://www.w3.org/2000/svg" xmlns:xlink="http://www.w3.org/1999/xlink" width="1080" zoomAndPan="magnify" viewBox="0 0 810 1012.49997" height="1350" preserveAspectRatio="xMidYMid meet" version="1.0"><defs><clipPath id="1881ed4a98"><path d="M 186.59375 81 L 658 81 L 658 957.015625 L 186.59375 957.015625 Z M 186.59375 81 " clip-rule="nonzero"/></clipPath><clipPath id="2c8806de72"><path d="M 0.640625 0.078125 L 471 0.078125 L 471 876.015625 L 0.640625 876.015625 Z M 0.640625 0.078125 " clip-rule="nonzero"/></clipPath><clipPath id="558fdb4c61"><rect x="0" width="472" y="0" height="877"/></clipPath></defs><g clip-path="url(#1881ed4a98)"><g transform="matrix(1, 0, 0, 1, 186, 81)"><g clip-path="url(#558fdb4c61)"><g clip-path="url(#2c8806de72)"><path fill="#6f2ca6" d="M 420.886719 876.015625 C 400.234375 869.699219 378.554688 865.433594 359.265625 856.386719 C 336.21875 845.628906 314.539062 831.460938 293.03125 817.464844 C 239.429688 782.640625 215.53125 730.574219 211.605469 668.78125 C 209.898438 641.125 213.140625 613.128906 213.480469 585.132812 C 213.480469 580.695312 211.773438 576.429688 208.871094 573.183594 C 137.6875 501.316406 101.667969 412.550781 87.84375 314.566406 C 80.503906 262.332031 80.503906 209.070312 75.039062 156.492188 C 72.136719 130.203125 67.015625 104.257812 59.503906 78.992188 C 51.824219 52.191406 32.363281 32.21875 12.390625 13.441406 C 9.316406 10.710938 4.878906 9.515625 0.953125 7.636719 L 4.878906 1.152344 C 12.5625 1.152344 20.414062 -0.0429688 27.925781 1.324219 C 63.945312 7.980469 89.039062 29.316406 105.082031 61.238281 C 122.324219 95.550781 127.957031 132.9375 130.859375 170.832031 C 134.957031 223.921875 135.980469 277.523438 143.152344 330.101562 C 153.222656 402.136719 181.902344 467.519531 226.625 525.386719 C 229.527344 529.144531 232.769531 532.386719 235.84375 535.800781 C 236.527344 536.652344 237.722656 536.996094 237.210938 536.652344 C 302.589844 492.953125 367.96875 496.027344 433.351562 533.070312 C 469.539062 553.726562 473.296875 591.621094 468.6875 621.664062 C 466.636719 635.152344 457.417969 644.371094 445.640625 651.027344 C 413.546875 668.949219 379.917969 667.242188 345.777344 659.390625 C 312.492188 651.710938 283.984375 634.296875 256.5 614.835938 C 252.914062 612.277344 249.160156 609.714844 243.867188 605.960938 C 239.429688 633.957031 240.964844 659.734375 243.867188 685.507812 C 250.355469 743.890625 285.347656 781.957031 332.464844 811.488281 C 366.09375 832.65625 399.890625 853.484375 440.007812 860.3125 C 442.054688 860.652344 445.46875 863.554688 445.300781 864.75 C 444.789062 867.652344 443.082031 870.210938 440.691406 871.75 C 436.765625 873.796875 432.15625 874.652344 427.714844 876.015625 Z M 261.449219 562.773438 C 298.664062 595.375 336.558594 620.8125 383.164062 628.664062 C 397.5 631.054688 413.035156 628.492188 427.546875 626.105469 C 432.324219 625.25 439.152344 617.738281 439.667969 612.617188 C 441.886719 590.085938 437.960938 568.917969 416.28125 555.945312 C 372.75 529.996094 327.683594 527.777344 281.421875 547.75 C 274.59375 550.652344 269.300781 556.796875 261.449219 562.773438 Z M 261.449219 562.773438 " fill-opacity="1" fill-rule="nonzero"/></g></g></g></g></svg>