<svg xmlns="http://www.w3.org/2000/svg" xmlns:xlink="http://www.w3.org/1999/xlink" width="1080" zoomAndPan="magnify" viewBox="0 0 810 1012.49997" height="1350" preserveAspectRatio="xMidYMid meet" version="1.0"><path fill="#6f2ca6" d="M 258.707031 467.578125 C 261.480469 505.359375 266.230469 546.929688 272.960938 592.289062 C 272.980469 592.40625 273 592.527344 273.027344 592.640625 C 292.445312 683.03125 312.324219 753.757812 332.664062 804.820312 C 305.894531 757.414062 286.355469 695.851562 274.035156 620.128906 L 274.03125 620.101562 C 265.09375 566.957031 259.988281 516.121094 258.707031 467.585938 Z M 473.597656 898.171875 C 484.527344 889.835938 494.71875 877.59375 504.171875 861.441406 C 513.589844 845.339844 522.246094 825.25 530.140625 801.167969 C 527.960938 816.320312 525.261719 829.730469 522.046875 841.402344 L 522.046875 841.40625 C 518.058594 852.09375 513.566406 861.347656 508.570312 869.171875 C 498.972656 884.207031 487.3125 893.875 473.597656 898.171875 Z M 266.894531 393.574219 C 266.894531 335.085938 273.445312 289.386719 286.542969 256.472656 C 286.8125 255.796875 286.941406 255.097656 286.941406 254.410156 C 286.941406 252.195312 285.609375 250.097656 283.425781 249.226562 C 283.230469 249.152344 283.039062 249.085938 282.84375 249.03125 L 282.84375 249.023438 C 283.003906 248.429688 283.167969 247.835938 283.332031 247.242188 L 283.332031 247.25 C 317.136719 144.875 362.507812 98.058594 419.441406 106.796875 L 419.441406 106.808594 C 471.84375 123.863281 509.269531 188.296875 531.722656 300.109375 L 531.722656 300.121094 C 544.992188 388.472656 551.628906 470.507812 551.628906 546.222656 C 551.628906 580.085938 550.300781 612.683594 547.648438 644.019531 L 547.648438 644.027344 C 546.304688 586.238281 542.0625 518.863281 534.921875 441.902344 C 534.636719 438.835938 531.917969 436.578125 528.851562 436.863281 C 525.957031 437.132812 523.789062 439.5625 523.789062 442.414062 C 523.789062 442.585938 523.796875 442.757812 523.8125 442.933594 C 532.597656 537.632812 536.992188 617.617188 536.992188 682.898438 C 536.992188 700.453125 536.675781 716.941406 536.039062 732.367188 L 536.039062 732.375 C 534.523438 740.714844 532.894531 748.949219 531.152344 757.078125 L 531.152344 757.082031 C 520.589844 799.238281 508.386719 832.144531 494.542969 855.804688 C 479.136719 882.140625 461.617188 896.652344 441.996094 899.347656 L 441.996094 899.351562 C 426.914062 896.46875 410.125 889.144531 391.636719 877.375 L 391.636719 877.378906 C 384.128906 871.175781 376.941406 864.351562 370.070312 856.90625 L 370.070312 856.910156 C 340.964844 810.929688 312.265625 722.125 283.972656 590.488281 L 283.972656 590.496094 C 272.589844 513.742188 266.894531 448.101562 266.894531 393.574219 Z M 247.230469 443.417969 C 247.230469 499.796875 252.496094 559.308594 263.03125 621.949219 L 263.03125 621.953125 C 280.941406 732.042969 314.117188 813.125 362.550781 865.199219 L 362.550781 865.203125 C 372.960938 881.238281 383.488281 892.335938 394.125 898.503906 C 411.398438 908.605469 427.554688 912.816406 442.59375 911.140625 L 442.59375 911.144531 C 474.058594 916.59375 499.1875 904.605469 517.972656 875.175781 C 523.429688 866.632812 528.296875 856.601562 532.582031 845.082031 C 532.636719 844.933594 532.6875 844.78125 532.730469 844.625 C 540.351562 817.085938 545.144531 780.175781 547.101562 733.902344 L 547.101562 733.90625 C 557.554688 676.277344 562.78125 613.714844 562.78125 546.21875 C 562.78125 469.886719 556.097656 387.242188 542.726562 298.289062 C 542.714844 298.199219 542.699219 298.109375 542.679688 298.019531 C 519.304688 181.519531 479.199219 114.1875 422.363281 96.027344 C 422.089844 95.941406 421.8125 95.875 421.53125 95.832031 C 358.15625 85.855469 308.539062 135.222656 272.675781 243.9375 C 272.648438 244.027344 272.621094 244.117188 272.597656 244.203125 C 255.6875 305.578125 247.230469 371.984375 247.230469 443.417969 Z M 247.230469 443.417969 " fill-opacity="1" fill-rule="nonzero"/></svg>