<svg xmlns="http://www.w3.org/2000/svg" xmlns:xlink="http://www.w3.org/1999/xlink" width="1080" zoomAndPan="magnify" viewBox="0 0 810 1012.49997" height="1350" preserveAspectRatio="xMidYMid meet" version="1.0"><defs><clipPath id="e48bd6fc36"><path d="M 317.75 50.214844 L 492 50.214844 L 492 931.03125 L 317.75 931.03125 Z M 317.75 50.214844 " clip-rule="nonzero"/></clipPath></defs><g clip-path="url(#e48bd6fc36)"><path fill="#662e9d" d="M 389.351562 675.097656 L 390.910156 673.492188 L 387.421875 670.648438 C 385.878906 665.625 384.074219 660.703125 382.007812 655.871094 C 380.800781 653.550781 380.066406 651.089844 379.804688 648.484375 C 379.320312 646.699219 378.570312 645.035156 377.558594 643.484375 C 378.15625 641.878906 378.0625 641.925781 375.953125 637.199219 C 374.851562 634.878906 373.980469 632.480469 373.335938 629.996094 C 372.695312 627.472656 372.417969 624.902344 371.914062 622.011719 L 372.832031 620.957031 C 371.300781 618.617188 370.351562 616.066406 369.988281 613.292969 C 369.742188 610.074219 369.332031 606.878906 368.75 603.703125 C 367.464844 600.628906 368.382812 597.511719 367.464844 594.527344 C 365.078125 587.1875 366.453125 579.660156 365.859375 572.230469 C 365.628906 569.292969 365.859375 566.265625 365.628906 563.375 C 365.144531 555.472656 365.511719 547.609375 366.730469 539.789062 C 367.300781 531.777344 368.402344 523.839844 370.035156 515.976562 C 371.46875 507.835938 373.515625 499.851562 376.179688 492.027344 C 377.199219 488.699219 377.996094 485.316406 378.566406 481.886719 L 380.769531 480.097656 L 379.578125 478.996094 L 385.21875 461.375 C 385.21875 461.375 385.21875 460.871094 385.21875 460.734375 C 388.984375 455.320312 389.578125 448.621094 392.425781 442.792969 C 394.519531 439.363281 395.773438 435.644531 396.1875 431.644531 C 396.1875 430.085938 397.746094 428.570312 398.480469 427.054688 C 402.351562 419.136719 405.550781 410.957031 408.070312 402.507812 C 408.484375 401.039062 410.730469 400.902344 409.996094 398.746094 C 409.738281 397.261719 409.9375 395.835938 410.59375 394.480469 C 411.191406 393.011719 413.164062 392.507812 413.070312 390.351562 C 413.222656 388.769531 413.589844 387.238281 414.171875 385.761719 C 414.515625 384.179688 415.019531 382.648438 415.6875 381.171875 C 417.15625 378.558594 416.878906 375.53125 418.394531 372.777344 C 419.90625 370.023438 419.769531 367.179688 421.238281 364.472656 C 421.925781 363.1875 421.238281 361.214844 421.238281 359.882812 L 423.625 357.359375 L 422.796875 356.398438 C 424.292969 351.089844 425.304688 345.691406 425.828125 340.199219 C 425.921875 337.789062 426.289062 335.417969 426.925781 333.089844 C 427.660156 331.070312 426.332031 328.5 428.074219 326.527344 C 428.761719 325.65625 428.074219 323.683594 428.074219 322.214844 L 428.074219 315.882812 C 428.074219 313.957031 427.25 311.292969 428.074219 310.375 C 429.910156 308.585938 425.734375 306.386719 428.855469 305.328125 C 427.109375 304.183594 428.855469 303.082031 428.855469 301.980469 C 428.953125 300.449219 428.953125 298.921875 428.855469 297.390625 C 428.625 295.832031 428.074219 294.316406 427.617188 292.527344 L 428.902344 290.554688 C 425.367188 286.609375 428.902344 281.011719 426.054688 276.789062 C 425.597656 276.148438 426.46875 274.589844 426.789062 273.164062 C 426.789062 272.890625 425.917969 272.25 425.871094 271.558594 C 425.671875 266.917969 424.753906 262.421875 423.121094 258.070312 C 422.789062 256.542969 422.789062 255.011719 423.121094 253.480469 C 423.296875 252.042969 423.15625 250.636719 422.695312 249.265625 C 422.238281 247.890625 421.507812 246.679688 420.503906 245.636719 L 421.328125 244.488281 C 418.789062 237.308594 416.953125 229.953125 415.824219 222.417969 L 413.667969 222.007812 C 413.667969 218.613281 413.667969 214.804688 410.5 212.371094 L 412.015625 209.984375 L 409.492188 209.113281 C 409.523438 207.039062 409.28125 204.996094 408.757812 202.988281 C 408.238281 200.976562 407.457031 199.074219 406.417969 197.277344 C 405.59375 195.304688 404.996094 193.191406 403.984375 191.3125 C 402.976562 189.429688 403.574219 187.59375 402.472656 185.988281 C 401.386719 184.34375 400.453125 182.617188 399.671875 180.804688 C 398.800781 178.832031 398.25 176.71875 397.425781 174.746094 C 396.515625 173.277344 395.71875 171.75 395.039062 170.160156 C 394.351562 167.683594 392.515625 165.800781 391.964844 163.140625 C 391.199219 160.90625 390.113281 158.84375 388.707031 156.945312 C 386.597656 153.414062 385.175781 149.511719 383.019531 146.023438 C 380.863281 142.539062 379.578125 138.960938 377.605469 135.609375 C 376.046875 133.210938 374.347656 130.917969 372.511719 128.726562 L 373.613281 127.398438 C 373.246094 126.113281 370.355469 127.398438 371.089844 124.917969 L 360.398438 110.191406 L 360.398438 109.136719 C 354.066406 103.21875 350.441406 95.738281 344.890625 89.820312 C 339.335938 83.898438 334.519531 77.292969 329.792969 71.464844 C 328.601562 66.878906 325.207031 64.765625 323.140625 61.554688 L 317.773438 52.378906 L 319.195312 50.820312 C 323.785156 53.894531 328.371094 57.335938 332.960938 59.996094 C 337.546875 62.65625 341.082031 68.164062 346.726562 71.28125 C 347.714844 73.246094 349.046875 74.945312 350.714844 76.375 C 353.972656 79.539062 356.925781 82.964844 359.570312 86.652344 C 361.773438 89.359375 364.160156 91.976562 366.453125 94.546875 C 367.761719 95.65625 368.886719 96.929688 369.820312 98.363281 C 370.757812 99.800781 371.472656 101.34375 371.960938 102.988281 C 371.960938 102.988281 371.960938 103.539062 371.960938 103.582031 C 375.859375 105.925781 376.273438 110.972656 379.761719 113.632812 L 378.476562 114.917969 L 382.144531 117.578125 C 383.246094 119.460938 384.808594 122.167969 386.320312 124.917969 C 387.695312 128.71875 389.777344 132.085938 392.5625 135.011719 C 395.113281 137.816406 396.84375 141.058594 397.746094 144.742188 C 398.839844 147.953125 400.265625 151.011719 402.011719 153.917969 C 402.84375 155.707031 403.5 157.558594 403.988281 159.46875 L 405.914062 159.929688 L 405.914062 164.195312 C 407.402344 167.632812 409.238281 170.875 411.417969 173.921875 C 413.714844 176.445312 412.796875 179.75 414.585938 182.410156 C 416.300781 185.414062 417.722656 188.546875 418.851562 191.816406 L 417.980469 193.238281 C 419.921875 196.058594 421.480469 199.078125 422.65625 202.296875 C 423.828125 205.511719 424.578125 208.824219 424.910156 212.234375 L 428.578125 216.820312 L 427.109375 218.429688 L 428.488281 220.769531 L 427.339844 222.238281 L 431.652344 229.164062 L 430.324219 230.542969 C 431.03125 231.589844 431.613281 232.707031 432.066406 233.890625 C 432.480469 235.40625 432.480469 237.054688 432.847656 238.480469 C 433.222656 239.789062 433.664062 241.070312 434.175781 242.332031 C 434.636719 243.664062 435.140625 244.949219 435.507812 246.234375 C 435.875 247.519531 436.609375 248.894531 436.242188 249.902344 C 435.644531 251.601562 437.296875 252.566406 437.066406 254.171875 C 436.839844 255.777344 437.847656 256.738281 438.304688 258.023438 L 436.882812 260.089844 L 439.546875 264.679688 L 438.628906 265.734375 C 439.039062 267.707031 439.546875 269.449219 439.773438 271.191406 C 440.003906 272.9375 439.453125 274.910156 440.234375 276.054688 C 440.539062 276.402344 440.789062 276.785156 440.976562 277.207031 C 441.167969 277.628906 441.292969 278.066406 441.347656 278.527344 C 441.40625 278.984375 441.394531 279.441406 441.3125 279.898438 C 441.234375 280.351562 441.085938 280.785156 440.875 281.195312 C 439.179688 283.304688 442.621094 284.132812 441.519531 286.152344 C 441.265625 286.925781 441.195312 287.714844 441.308594 288.519531 C 441.421875 289.324219 441.707031 290.066406 442.160156 290.738281 C 442.804688 291.75 440.601562 293.765625 442.160156 295.328125 C 443.71875 296.886719 440.234375 297.804688 442.160156 299.410156 C 442.988281 300.054688 440.1875 302.578125 442.664062 303.585938 C 442.34375 305.652344 441.886719 307.578125 441.746094 309.550781 C 441.933594 311.84375 441.933594 314.140625 441.746094 316.433594 C 441.335938 318.039062 441.746094 319.828125 440.738281 321.25 L 442.070312 322.582031 C 439.957031 325.472656 441.335938 328.363281 441.519531 331.253906 C 440.28125 335.78125 439.347656 340.367188 438.71875 345.019531 C 438.441406 346.765625 438.074219 348.492188 437.617188 350.203125 L 434.132812 368.554688 C 434.132812 369.105469 433.441406 369.566406 433.03125 370.160156 L 434.269531 371.539062 L 432.113281 372.273438 C 431.058594 374.796875 431.378906 377.550781 430.550781 380.074219 C 429.726562 382.597656 428.761719 385.671875 427.800781 388.421875 C 426.761719 391.207031 426.027344 394.066406 425.597656 397.003906 C 424.921875 399.84375 423.957031 402.578125 422.707031 405.214844 C 422.292969 405.214844 421.878906 405.214844 421.101562 405.214844 C 421.925781 409.804688 418.253906 412.785156 416.097656 416.273438 C 416.40625 416.75 416.632812 417.265625 416.773438 417.816406 C 416.914062 418.367188 416.964844 418.925781 416.921875 419.492188 C 416.882812 420.0625 416.75 420.605469 416.53125 421.132812 C 416.3125 421.65625 416.015625 422.132812 415.640625 422.558594 C 414.25 424.96875 413.207031 427.523438 412.519531 430.222656 C 411.925781 431.460938 411.191406 432.652344 410.042969 434.808594 L 410.042969 439.398438 L 408.390625 439.8125 C 405.480469 445.277344 403.261719 451.015625 401.738281 457.019531 L 402.839844 458.210938 L 399.582031 460.230469 C 400.363281 465.324219 396.597656 468.808594 395.726562 473.03125 C 394.875 477.640625 393.160156 481.910156 390.589844 485.832031 L 391.917969 487.574219 C 389.933594 490.804688 388.753906 494.308594 388.386719 498.082031 C 388 500.304688 387.390625 502.460938 386.550781 504.550781 C 386.550781 504.550781 386.550781 504.550781 386.871094 505.011719 C 385.769531 507.765625 386.871094 511.296875 383.796875 513.546875 C 383.386719 513.820312 384.210938 515.703125 384.625 517.351562 L 382.511719 518.546875 C 382.511719 520.609375 383.203125 522.8125 382.511719 524.234375 C 381.824219 525.65625 380.863281 527.449219 382.511719 529.144531 C 382.191406 530.566406 382.238281 532.355469 381.367188 533.367188 C 380.496094 534.375 380.632812 536.074219 380.496094 537.496094 C 380.355469 538.917969 381.230469 540.890625 379.394531 542.082031 C 381.59375 543.414062 379.027344 544.699219 379.394531 546.074219 C 379.566406 547.605469 379.566406 549.132812 379.394531 550.664062 C 379.394531 552.222656 379.761719 553.875 378.382812 555.253906 C 380.816406 555.804688 377.648438 557.316406 378.980469 558.464844 C 380.3125 559.609375 379.851562 561.445312 378.429688 562.683594 C 378.84375 563.144531 379.667969 563.648438 379.578125 564.0625 C 379.578125 565.574219 378.613281 567.089844 378.566406 568.648438 C 378.523438 570.210938 379.945312 571.90625 379.4375 572.964844 C 378.933594 574.019531 379.4375 574.523438 379.714844 575.304688 C 380.082031 577.046875 380.585938 579.066406 379.070312 580.210938 L 381.230469 588.148438 C 378.246094 590.535156 381.230469 593.472656 380.585938 596.269531 C 379.945312 599.070312 382.285156 601.320312 382.925781 603.980469 C 383.570312 606.640625 382.191406 609.714844 384.027344 611.964844 L 383.019531 614.855469 L 385.496094 615.359375 C 385.769531 617.195312 386.503906 619.167969 384.714844 620.773438 L 387.285156 625.359375 L 386.183594 627.425781 L 388.753906 628.390625 L 387.742188 630.730469 C 388.421875 633.179688 389.371094 635.519531 390.589844 637.75 C 392.242188 640.089844 388.386719 642.75 391.046875 645 L 395.636719 648.347656 L 393.9375 650.089844 L 397.195312 651.699219 C 394.535156 654.082031 398.023438 655.6875 396.828125 657.480469 C 399.121094 660.324219 399.304688 664.222656 401.050781 667.113281 C 402.675781 670.242188 404.113281 673.453125 405.363281 676.75 C 406.550781 678.835938 407.945312 680.777344 409.539062 682.578125 C 407.703125 686.246094 411.695312 688.21875 412.382812 691.15625 C 412.84375 692.613281 413.511719 693.96875 414.390625 695.222656 C 415.265625 696.472656 416.308594 697.566406 417.523438 698.496094 C 419.585938 706.207031 424.496094 711.847656 427.660156 718.089844 L 429.816406 718.871094 L 428.394531 719.878906 C 431.351562 723.894531 433.660156 728.253906 435.324219 732.957031 L 438.71875 735.664062 L 438.71875 739.105469 L 441.519531 740.800781 L 446.105469 749.242188 L 445.328125 750.160156 C 447.023438 751.078125 448.722656 751.582031 449.5 753.96875 C 450.835938 757.210938 452.5 760.269531 454.503906 763.144531 C 455.503906 764.378906 456.621094 765.496094 457.851562 766.496094 L 456.933594 768.515625 C 458.769531 769.707031 460.421875 770.394531 461.203125 773.101562 C 462.863281 776.722656 464.957031 780.074219 467.488281 783.152344 L 467.488281 786.546875 L 469.367188 787.097656 C 470.441406 789.878906 471.648438 792.601562 472.992188 795.265625 C 474.535156 797.769531 476.203125 800.183594 477.996094 802.511719 L 476.34375 804.808594 C 481.847656 808.707031 482.125 815.175781 484.554688 820.453125 C 485.96875 822.394531 486.671875 824.566406 486.667969 826.96875 C 486.390625 829.125 488.410156 831.558594 489.558594 834.171875 C 489.207031 835.921875 489.1875 837.675781 489.496094 839.433594 C 489.804688 841.191406 490.421875 842.832031 491.347656 844.359375 C 491.027344 844.726562 490.246094 845.550781 490.335938 845.644531 C 491.988281 847.660156 489.144531 850.550781 491.757812 852.386719 C 490.613281 854.316406 489.375 856.289062 491.757812 858.214844 L 489.328125 860.785156 C 489.238281 861.503906 489.238281 862.222656 489.328125 862.941406 C 489.644531 863.617188 490.058594 864.230469 490.566406 864.777344 L 488.042969 866.886719 L 489.375 868.035156 L 486.667969 876.429688 C 482.949219 879.320312 481.757812 884.734375 478.867188 889.046875 C 475.976562 893.359375 470.929688 895.792969 469.964844 901.621094 L 468.039062 900.199219 C 467.355469 901.609375 466.464844 902.871094 465.363281 903.984375 C 464.265625 905.101562 463.015625 906.011719 461.613281 906.714844 C 458.957031 907.582031 456.753906 909.113281 455.007812 911.300781 C 453.449219 913.777344 450.785156 913.824219 448.953125 915.476562 C 446.6875 917.027344 444.300781 918.355469 441.792969 919.46875 C 440.804688 920.1875 439.917969 921.011719 439.132812 921.945312 L 437.894531 920.753906 L 433.71875 925.066406 L 431.425781 923.367188 L 430.644531 925.800781 L 424.816406 926.902344 L 424.816406 928.230469 L 418.804688 929.5625 L 417.707031 928.597656 L 413.117188 931.078125 L 406.371094 928.78125 L 405.316406 922.957031 L 407.886719 919.101562 C 413.335938 917.808594 418.582031 915.941406 423.625 913.503906 C 425.871094 912.128906 428.625 912.632812 430.964844 910.613281 C 433.304688 908.59375 436.472656 907.628906 439.039062 906.023438 C 441.3125 904.078125 443.777344 902.410156 446.429688 901.023438 C 449.683594 899.648438 451.660156 896.710938 454.59375 895.058594 C 457.648438 892.953125 460.402344 890.503906 462.855469 887.71875 C 466.910156 883.179688 470.394531 878.238281 473.316406 872.898438 C 474.1875 871.613281 474.875 870.144531 475.609375 868.8125 C 476.066406 865.648438 476.664062 862.480469 476.941406 859.269531 C 477.214844 856.058594 480.015625 853.582031 476.941406 851.195312 C 477.488281 849.164062 477.714844 847.101562 477.628906 845 C 476.480469 839.355469 474.921875 833.851562 473.5 828.300781 C 471.203125 826.738281 472.949219 824.355469 471.984375 822.5625 C 470.109375 819.632812 468.472656 816.574219 467.074219 813.386719 C 465.253906 810.125 463.726562 806.726562 462.488281 803.203125 C 462.121094 801.230469 460.007812 799.667969 459.046875 797.695312 C 457.105469 792.980469 454.535156 788.636719 451.335938 784.664062 C 451.335938 781.5 448.953125 780.078125 447.207031 778.148438 C 445.464844 776.222656 446.429688 773.5625 444.363281 771.726562 C 445.371094 769.15625 441.289062 770.625 441.792969 768.515625 C 442.296875 766.402344 439.867188 765.53125 439.132812 763.925781 C 438.699219 762.414062 437.980469 761.050781 436.976562 759.84375 C 434.726562 757.871094 435.050781 754.65625 432.386719 752.683594 C 430.449219 750.699219 428.917969 748.4375 427.800781 745.894531 C 427.179688 744.664062 426.707031 743.378906 426.378906 742.039062 C 425.550781 739.699219 422.980469 738.691406 421.789062 736.398438 C 420.902344 734.0625 419.859375 731.800781 418.667969 729.605469 C 417.382812 727.402344 415.914062 725.292969 414.539062 723.089844 L 411.28125 717.492188 C 408.691406 713.78125 406.429688 709.882812 404.492188 705.792969 C 402.839844 701.203125 400.40625 697.304688 398.480469 693.082031 C 395.726562 686.933594 392.46875 681.109375 389.351562 675.097656 Z M 389.351562 675.097656 " fill-opacity="1" fill-rule="nonzero"/></g></svg>