<svg xmlns="http://www.w3.org/2000/svg" xmlns:xlink="http://www.w3.org/1999/xlink" width="1080" zoomAndPan="magnify" viewBox="0 0 810 1012.49997" height="1350" preserveAspectRatio="xMidYMid meet" version="1.0"><defs><clipPath id="d36ec371fc"><path d="M 17 448 L 332 448 L 332 814 L 17 814 Z M 17 448 " clip-rule="nonzero"/></clipPath><clipPath id="5b410cb193"><path d="M 191.113281 813.855469 L 17.226562 536.742188 L 157.824219 448.519531 L 331.710938 725.632812 Z M 191.113281 813.855469 " clip-rule="nonzero"/></clipPath><clipPath id="93ce1cffd5"><path d="M 0.078125 0.492188 L 314.804688 0.492188 L 314.804688 366 L 0.078125 366 Z M 0.078125 0.492188 " clip-rule="nonzero"/></clipPath><clipPath id="f60f35469a"><path d="M 174.113281 365.855469 L 0.226562 88.742188 L 140.824219 0.519531 L 314.710938 277.632812 Z M 174.113281 365.855469 " clip-rule="nonzero"/></clipPath><clipPath id="f328add44f"><rect x="0" width="315" y="0" height="366"/></clipPath><clipPath id="3500b82348"><path d="M 87 269 L 372 269 L 372 584 L 87 584 Z M 87 269 " clip-rule="nonzero"/></clipPath><clipPath id="03475d4c02"><path d="M 227.710938 269.222656 L 371.746094 493.902344 L 232.007812 583.480469 L 87.976562 358.804688 Z M 227.710938 269.222656 " clip-rule="nonzero"/></clipPath><clipPath id="6b0c2f75e0"><path d="M 0.84375 0.0625 L 284.863281 0.0625 L 284.863281 314.546875 L 0.84375 314.546875 Z M 0.84375 0.0625 " clip-rule="nonzero"/></clipPath><clipPath id="cc615de268"><path d="M 140.710938 0.222656 L 284.746094 224.902344 L 145.007812 314.480469 L 0.976562 89.804688 Z M 140.710938 0.222656 " clip-rule="nonzero"/></clipPath><clipPath id="908fc3c8b1"><rect x="0" width="285" y="0" height="315"/></clipPath><clipPath id="aaa4dc503a"><path d="M 0.765625 0.875 L 435.671875 0.875 L 435.671875 364 L 0.765625 364 Z M 0.765625 0.875 " clip-rule="nonzero"/></clipPath><clipPath id="377171e6e6"><path d="M 0.855469 224.378906 L 345.03125 0.921875 L 435.417969 140.136719 L 91.242188 363.59375 Z M 0.855469 224.378906 " clip-rule="nonzero"/></clipPath><clipPath id="e11cb8df95"><path d="M 0.765625 0.875 L 435.433594 0.875 L 435.433594 363.816406 L 0.765625 363.816406 Z M 0.765625 0.875 " clip-rule="nonzero"/></clipPath><clipPath id="e87cda35af"><path d="M 0.855469 224.378906 L 345.03125 0.921875 L 435.417969 140.136719 L 91.242188 363.59375 Z M 0.855469 224.378906 " clip-rule="nonzero"/></clipPath><clipPath id="5184c2bc31"><rect x="0" width="436" y="0" height="364"/></clipPath><clipPath id="48dc6508ea"><rect x="0" width="436" y="0" height="815"/></clipPath></defs><g transform="matrix(1, 0, 0, 1, 146, 91)"><g clip-path="url(#48dc6508ea)"><g clip-path="url(#d36ec371fc)"><g clip-path="url(#5b410cb193)"><g transform="matrix(1, 0, 0, 1, 17, 448)"><g clip-path="url(#f328add44f)"><g clip-path="url(#93ce1cffd5)"><g clip-path="url(#f60f35469a)"><path fill="#6f2ca6" d="M 174.113281 365.855469 L 0.078125 88.507812 L 140.675781 0.285156 L 314.710938 277.632812 Z M 174.113281 365.855469 " fill-opacity="1" fill-rule="nonzero"/></g></g></g></g></g></g><g clip-path="url(#3500b82348)"><g clip-path="url(#03475d4c02)"><g transform="matrix(1, 0, 0, 1, 87, 269)"><g clip-path="url(#908fc3c8b1)"><g clip-path="url(#6b0c2f75e0)"><g clip-path="url(#cc615de268)"><path fill="#6f2ca6" d="M 140.710938 0.222656 L 284.878906 225.109375 L 145.140625 314.691406 L 0.976562 89.804688 Z M 140.710938 0.222656 " fill-opacity="1" fill-rule="nonzero"/></g></g></g></g></g></g><g clip-path="url(#aaa4dc503a)"><g clip-path="url(#377171e6e6)"><g transform="matrix(1, 0, 0, 1, -0.000000000000028422, 0)"><g clip-path="url(#5184c2bc31)"><g clip-path="url(#e11cb8df95)"><g clip-path="url(#e87cda35af)"><path fill="#6f2ca6" d="M 0.855469 224.378906 L 345.089844 0.882812 L 435.476562 140.097656 L 91.242188 363.59375 Z M 0.855469 224.378906 " fill-opacity="1" fill-rule="nonzero"/></g></g></g></g></g></g></g></g></svg>