<svg xmlns="http://www.w3.org/2000/svg" xmlns:xlink="http://www.w3.org/1999/xlink" width="1080" zoomAndPan="magnify" viewBox="0 0 810 1012.49997" height="1350" preserveAspectRatio="xMidYMid meet" version="1.0"><defs><clipPath id="3823fa28b0"><path d="M 17 448 L 332 448 L 332 814 L 17 814 Z M 17 448 " clip-rule="nonzero"/></clipPath><clipPath id="8552fa9e95"><path d="M 191.113281 813.855469 L 17.226562 536.746094 L 157.824219 448.519531 L 331.710938 725.632812 Z M 191.113281 813.855469 " clip-rule="nonzero"/></clipPath><clipPath id="c64f78cc38"><path d="M 0.078125 0.492188 L 314.804688 0.492188 L 314.804688 366 L 0.078125 366 Z M 0.078125 0.492188 " clip-rule="nonzero"/></clipPath><clipPath id="e947429d30"><path d="M 174.113281 365.855469 L 0.226562 88.746094 L 140.824219 0.519531 L 314.710938 277.632812 Z M 174.113281 365.855469 " clip-rule="nonzero"/></clipPath><clipPath id="d00924d6b5"><rect x="0" width="315" y="0" height="366"/></clipPath><clipPath id="da5ab69753"><path d="M 87 269 L 372 269 L 372 584 L 87 584 Z M 87 269 " clip-rule="nonzero"/></clipPath><clipPath id="eb9b7062d0"><path d="M 227.710938 269.222656 L 371.746094 493.902344 L 232.007812 583.480469 L 87.976562 358.804688 Z M 227.710938 269.222656 " clip-rule="nonzero"/></clipPath><clipPath id="0a0f198286"><path d="M 0.84375 0.0625 L 284.863281 0.0625 L 284.863281 314.546875 L 0.84375 314.546875 Z M 0.84375 0.0625 " clip-rule="nonzero"/></clipPath><clipPath id="20cc869232"><path d="M 140.710938 0.222656 L 284.746094 224.902344 L 145.007812 314.480469 L 0.976562 89.804688 Z M 140.710938 0.222656 " clip-rule="nonzero"/></clipPath><clipPath id="86cb0ca88c"><rect x="0" width="285" y="0" height="315"/></clipPath><clipPath id="4947980812"><path d="M 0.765625 0.875 L 435.671875 0.875 L 435.671875 364 L 0.765625 364 Z M 0.765625 0.875 " clip-rule="nonzero"/></clipPath><clipPath id="a808fe5d1c"><path d="M 0.855469 224.378906 L 345.03125 0.921875 L 435.417969 140.136719 L 91.242188 363.59375 Z M 0.855469 224.378906 " clip-rule="nonzero"/></clipPath><clipPath id="1f43c41f2c"><path d="M 0.765625 0.875 L 435.433594 0.875 L 435.433594 363.816406 L 0.765625 363.816406 Z M 0.765625 0.875 " clip-rule="nonzero"/></clipPath><clipPath id="9f8d6b91c3"><path d="M 0.855469 224.378906 L 345.03125 0.921875 L 435.417969 140.136719 L 91.242188 363.59375 Z M 0.855469 224.378906 " clip-rule="nonzero"/></clipPath><clipPath id="d187419622"><rect x="0" width="436" y="0" height="364"/></clipPath><clipPath id="542697f8cd"><rect x="0" width="436" y="0" height="815"/></clipPath></defs><g transform="matrix(1, 0, 0, 1, 146, 91)"><g clip-path="url(#542697f8cd)"><g clip-path="url(#3823fa28b0)"><g clip-path="url(#8552fa9e95)"><g transform="matrix(1, 0, 0, 1, 17, 448)"><g clip-path="url(#d00924d6b5)"><g clip-path="url(#c64f78cc38)"><g clip-path="url(#e947429d30)"><path fill="#f45a18" d="M 174.113281 365.855469 L 0.078125 88.507812 L 140.675781 0.285156 L 314.710938 277.632812 Z M 174.113281 365.855469 " fill-opacity="1" fill-rule="nonzero"/></g></g></g></g></g></g><g clip-path="url(#da5ab69753)"><g clip-path="url(#eb9b7062d0)"><g transform="matrix(1, 0, 0, 1, 87, 269)"><g clip-path="url(#86cb0ca88c)"><g clip-path="url(#0a0f198286)"><g clip-path="url(#20cc869232)"><path fill="#f45a18" d="M 140.710938 0.222656 L 284.878906 225.109375 L 145.140625 314.691406 L 0.976562 89.804688 Z M 140.710938 0.222656 " fill-opacity="1" fill-rule="nonzero"/></g></g></g></g></g></g><g clip-path="url(#4947980812)"><g clip-path="url(#a808fe5d1c)"><g transform="matrix(1, 0, 0, 1, -0.000000000000028422, 0)"><g clip-path="url(#d187419622)"><g clip-path="url(#1f43c41f2c)"><g clip-path="url(#9f8d6b91c3)"><path fill="#f45a18" d="M 0.855469 224.378906 L 345.089844 0.882812 L 435.476562 140.097656 L 91.242188 363.59375 Z M 0.855469 224.378906 " fill-opacity="1" fill-rule="nonzero"/></g></g></g></g></g></g></g></g></svg>